<svg xmlns="http://www.w3.org/2000/svg" width="36.562" height="36.562" viewBox="0 0 36.562 36.562">
  <g id="facebook" transform="translate(443.654)">
    <g id="Group_40" data-name="Group 40" transform="translate(-430.938 7.367)">
      <g id="Group_39" data-name="Group 39" transform="translate(0)">
        <g id="Group_38" data-name="Group 38">
          <path id="Path_6" data-name="Path 6" d="M50.839,45.966V36.873h3.032l.577-3.761H50.839V30.671a1.881,1.881,0,0,1,2.12-2.032H54.6v-3.2a20.03,20.03,0,0,0-2.913-.254c-2.972,0-4.915,1.8-4.915,5.062v2.866h-3.3v3.761h3.3v9.092Z" transform="translate(-43.469 -25.183)" fill="#fff"/>
        </g>
      </g>
    </g>
    <g id="Group_57" data-name="Group 57" transform="translate(-443.654)">
      <path id="Path_19" data-name="Path 19" d="M18.281,36.562A18.281,18.281,0,1,1,36.562,18.281,18.3,18.3,0,0,1,18.281,36.562Zm0-35.419A17.138,17.138,0,1,0,35.419,18.281,17.157,17.157,0,0,0,18.281,1.143Z" fill="#fff"/>
    </g>
  </g>
</svg>
