<svg xmlns="http://www.w3.org/2000/svg" width="36.562" height="36.562" viewBox="0 0 36.562 36.562">
  <g id="insta" transform="translate(581.232)">
    <g id="Group_44" data-name="Group 44" transform="translate(-573.348 7.885)">
      <g id="Group_41" data-name="Group 41" transform="translate(0)">
        <path id="Path_7" data-name="Path 7" d="M-432.968,26.954c-2.823,0-3.177.012-4.286.063a7.631,7.631,0,0,0-2.524.483,5.1,5.1,0,0,0-1.841,1.2,5.1,5.1,0,0,0-1.2,1.841,7.638,7.638,0,0,0-.483,2.524c-.051,1.109-.063,1.463-.063,4.286s.012,3.177.063,4.286a7.636,7.636,0,0,0,.483,2.523,5.1,5.1,0,0,0,1.2,1.841,5.1,5.1,0,0,0,1.841,1.2,7.623,7.623,0,0,0,2.524.483c1.109.051,1.463.063,4.286.063s3.177-.012,4.286-.063a7.625,7.625,0,0,0,2.524-.483,5.092,5.092,0,0,0,1.841-1.2,5.1,5.1,0,0,0,1.2-1.841,7.63,7.63,0,0,0,.483-2.523c.051-1.109.063-1.463.063-4.286s-.012-3.178-.063-4.286a7.632,7.632,0,0,0-.483-2.524,5.1,5.1,0,0,0-1.2-1.841,5.092,5.092,0,0,0-1.841-1.2,7.633,7.633,0,0,0-2.524-.483c-1.109-.051-1.463-.063-4.286-.063Zm0,1.873c2.776,0,3.1.011,4.2.061a5.748,5.748,0,0,1,1.93.358,3.214,3.214,0,0,1,1.2.778,3.222,3.222,0,0,1,.778,1.2,5.748,5.748,0,0,1,.358,1.93c.05,1.1.061,1.425.061,4.2s-.011,3.1-.061,4.2a5.748,5.748,0,0,1-.358,1.93,3.219,3.219,0,0,1-.778,1.2,3.219,3.219,0,0,1-1.2.778,5.757,5.757,0,0,1-1.93.358c-1.1.05-1.425.061-4.2.061s-3.1-.011-4.2-.061a5.758,5.758,0,0,1-1.93-.358,3.222,3.222,0,0,1-1.2-.778,3.219,3.219,0,0,1-.778-1.2,5.748,5.748,0,0,1-.358-1.93c-.05-1.1-.061-1.425-.061-4.2s.011-3.1.061-4.2a5.748,5.748,0,0,1,.358-1.93,3.222,3.222,0,0,1,.778-1.2,3.218,3.218,0,0,1,1.2-.778,5.748,5.748,0,0,1,1.93-.358c1.1-.05,1.425-.061,4.2-.061" transform="translate(443.364 -26.954)" fill="#fff"/>
      </g>
      <g id="Group_42" data-name="Group 42" transform="translate(5.058 5.058)">
        <path id="Path_8" data-name="Path 8" d="M-420.735,53.048a3.465,3.465,0,0,1-3.466-3.465,3.466,3.466,0,0,1,3.466-3.466,3.465,3.465,0,0,1,3.465,3.466,3.465,3.465,0,0,1-3.465,3.465Zm0-8.8a5.338,5.338,0,0,0-5.339,5.339,5.339,5.339,0,0,0,5.339,5.339,5.339,5.339,0,0,0,5.339-5.339,5.338,5.338,0,0,0-5.339-5.339Z" transform="translate(426.074 -44.244)" fill="#fff"/>
      </g>
      <g id="Group_43" data-name="Group 43" transform="translate(14.698 3.599)">
        <path id="Path_9" data-name="Path 9" d="M-390.623,40.506a1.248,1.248,0,0,1-1.248,1.247,1.248,1.248,0,0,1-1.248-1.247,1.248,1.248,0,0,1,1.248-1.248,1.248,1.248,0,0,1,1.248,1.248Z" transform="translate(393.118 -39.258)" fill="#fff"/>
      </g>
    </g>
    <g id="Group_54" data-name="Group 54" transform="translate(-581.232)">
      <path id="Path_16" data-name="Path 16" d="M-452.037,36.562a18.3,18.3,0,0,1-18.281-18.281A18.3,18.3,0,0,1-452.037,0a18.3,18.3,0,0,1,18.281,18.281A18.3,18.3,0,0,1-452.037,36.562Zm0-35.419a17.157,17.157,0,0,0-17.138,17.138,17.157,17.157,0,0,0,17.138,17.138A17.157,17.157,0,0,0-434.9,18.281,17.157,17.157,0,0,0-452.037,1.143Z" transform="translate(470.318)" fill="#fff"/>
    </g>
  </g>
</svg>
