<svg xmlns="http://www.w3.org/2000/svg" width="36.562" height="36.562" viewBox="0 0 36.562 36.562">
  <g id="linkedin" transform="translate(489.514)">
    <g id="Group_48" data-name="Group 48" transform="translate(-481.295 7.332)">
      <g id="Group_45" data-name="Group 45" transform="translate(7.355 6.546)">
        <path id="Path_10" data-name="Path 10" d="M-99.339,49.679a4.592,4.592,0,0,1,.768-.971,4.515,4.515,0,0,1,3.246-1.268,6.234,6.234,0,0,1,2.767.539,4.2,4.2,0,0,1,2.189,3.092,13.424,13.424,0,0,1,.273,2.989c0,2.433-.006,4.865,0,7.3,0,.214-.056.272-.27.27q-1.873-.015-3.746,0c-.225,0-.284-.055-.283-.282q.013-3.459,0-6.918a6.827,6.827,0,0,0-.139-1.454,2.013,2.013,0,0,0-2.411-1.752,2.311,2.311,0,0,0-2.217,2.314,9.071,9.071,0,0,0-.064,1.109c0,2.234,0,4.467.006,6.7,0,.23-.065.283-.286.281q-1.886-.016-3.773,0c-.207,0-.254-.06-.254-.259q.008-6.66,0-13.321c0-.222.071-.268.277-.267q1.792.013,3.583,0c.222,0,.272.071.267.277-.013.531,0,1.062,0,1.592Z" transform="translate(103.532 -47.44)" fill="#fff"/>
      </g>
      <g id="Group_46" data-name="Group 46" transform="translate(0.329 6.887)">
        <path id="Path_11" data-name="Path 11" d="M-123.242,55.52c0,2.215,0,4.431,0,6.646,0,.221-.049.29-.281.288-1.257-.012-2.515-.01-3.772,0-.2,0-.261-.041-.261-.252q.01-6.673,0-13.347c0-.182.037-.25.236-.249q1.913.014,3.826,0c.218,0,.248.08.248.268Q-123.247,52.2-123.242,55.52Z" transform="translate(127.551 -48.605)" fill="#fff"/>
      </g>
      <g id="Group_47" data-name="Group 47" transform="translate(0)">
        <path id="Path_12" data-name="Path 12" d="M-128.677,27.552a2.506,2.506,0,0,1,2.509-2.49,2.5,2.5,0,0,1,2.477,2.493,2.5,2.5,0,0,1-2.507,2.491A2.511,2.511,0,0,1-128.677,27.552Z" transform="translate(128.677 -25.062)" fill="#fff"/>
      </g>
    </g>
    <g id="Group_56" data-name="Group 56" transform="translate(-489.514)">
      <path id="Path_18" data-name="Path 18" d="M-138.492,36.562a18.3,18.3,0,0,1-18.281-18.281A18.3,18.3,0,0,1-138.492,0a18.3,18.3,0,0,1,18.281,18.281A18.3,18.3,0,0,1-138.492,36.562Zm0-35.419A17.157,17.157,0,0,0-155.63,18.281a17.157,17.157,0,0,0,17.138,17.138,17.157,17.157,0,0,0,17.138-17.138A17.157,17.157,0,0,0-138.492,1.143Z" transform="translate(156.773)" fill="#fff"/>
    </g>
  </g>
</svg>
