<svg xmlns="http://www.w3.org/2000/svg" width="44.386" height="40.125" viewBox="0 0 44.386 40.125">
  <path id="quote" d="M24.5-49.125v-19.25H16.25A16.041,16.041,0,0,1,18-76.188Q19.75-79.375,24.5-81v-8.25a20.225,20.225,0,0,0-7.188,2.313,20.333,20.333,0,0,0-5.687,4.562A20.138,20.138,0,0,0,7.938-76,20.718,20.718,0,0,0,6.75-68.25v19.125Zm26.625,0v-19.25h-8.25a16.041,16.041,0,0,1,1.75-7.812q1.75-3.187,6.5-4.812v-8.25a20.225,20.225,0,0,0-7.187,2.313,20.333,20.333,0,0,0-5.687,4.562A20.137,20.137,0,0,0,34.563-76a20.718,20.718,0,0,0-1.187,7.75v19.125Z" transform="translate(-6.739 89.25)" fill="#fff"/>
</svg>
