<svg xmlns="http://www.w3.org/2000/svg" width="42.61" height="38.52" viewBox="0 0 42.61 38.52">
  <path id="red-quote" d="M23.52-47.16V-65.64H15.6a15.4,15.4,0,0,1,1.68-7.5q1.68-3.06,6.24-4.62v-7.92a19.416,19.416,0,0,0-6.9,2.22,19.519,19.519,0,0,0-5.46,4.38,19.332,19.332,0,0,0-3.54,6.12,19.889,19.889,0,0,0-1.14,7.44v18.36Zm25.56,0V-65.64H41.16a15.4,15.4,0,0,1,1.68-7.5q1.68-3.06,6.24-4.62v-7.92a19.417,19.417,0,0,0-6.9,2.22,19.519,19.519,0,0,0-5.46,4.38,19.332,19.332,0,0,0-3.54,6.12,19.889,19.889,0,0,0-1.14,7.44v18.36Z" transform="translate(-6.47 85.68)" fill="red"/>
</svg>
