<svg xmlns="http://www.w3.org/2000/svg" width="36.562" height="36.562" viewBox="0 0 36.562 36.562">
  <g id="twitter" transform="translate(535.373)">
    <g id="Group_50" data-name="Group 50" transform="translate(-527.49 9.83)">
      <g id="Group_49" data-name="Group 49" transform="translate(0)">
        <path id="Path_13" data-name="Path 13" d="M-280.059,50.506a12.058,12.058,0,0,0,12.14-12.141c0-.185,0-.369-.012-.552A8.681,8.681,0,0,0-265.8,35.6a8.522,8.522,0,0,1-2.45.672,4.283,4.283,0,0,0,1.876-2.36,8.555,8.555,0,0,1-2.709,1.036A4.263,4.263,0,0,0-272.2,33.6a4.268,4.268,0,0,0-4.268,4.266,4.264,4.264,0,0,0,.111.973,12.114,12.114,0,0,1-8.8-4.458,4.251,4.251,0,0,0-.578,2.144,4.264,4.264,0,0,0,1.9,3.552,4.239,4.239,0,0,1-1.933-.534c0,.018,0,.036,0,.054a4.269,4.269,0,0,0,3.423,4.183,4.272,4.272,0,0,1-1.125.15,4.261,4.261,0,0,1-.8-.077,4.272,4.272,0,0,0,3.986,2.964,8.563,8.563,0,0,1-5.3,1.827,8.724,8.724,0,0,1-1.018-.059,12.079,12.079,0,0,0,6.541,1.917" transform="translate(286.6 -33.603)" fill="#fff"/>
      </g>
    </g>
    <g id="Group_55" data-name="Group 55" transform="translate(-535.373)">
      <path id="Path_17" data-name="Path 17" d="M-295.264,36.562a18.3,18.3,0,0,1-18.281-18.281A18.3,18.3,0,0,1-295.264,0a18.3,18.3,0,0,1,18.281,18.281A18.3,18.3,0,0,1-295.264,36.562Zm0-35.419A17.157,17.157,0,0,0-312.4,18.281a17.157,17.157,0,0,0,17.138,17.138,17.157,17.157,0,0,0,17.138-17.138A17.157,17.157,0,0,0-295.264,1.143Z" transform="translate(313.545)" fill="#fff"/>
    </g>
  </g>
</svg>
