<svg xmlns="http://www.w3.org/2000/svg" width="36.562" height="36.562" viewBox="0 0 36.562 36.562">
  <g id="youtube" transform="translate(627.092)">
    <g id="Group_52" data-name="Group 52" transform="translate(-619.207 11.004)">
      <g id="Group_51" data-name="Group 51" transform="translate(0)">
        <path id="Path_14" data-name="Path 14" d="M-579.779,39.889a2.6,2.6,0,0,0-1.838-1.838c-1.622-.434-8.124-.434-8.124-.434s-6.5,0-8.123.434a2.6,2.6,0,0,0-1.838,1.838,27.04,27.04,0,0,0-.435,5,27.043,27.043,0,0,0,.435,5,2.6,2.6,0,0,0,1.838,1.838c1.621.435,8.123.435,8.123.435s6.5,0,8.124-.435a2.6,2.6,0,0,0,1.838-1.838,27.08,27.08,0,0,0,.434-5A27.077,27.077,0,0,0-579.779,39.889Zm-12.041,8.124V41.774l5.4,3.119Z" transform="translate(600.137 -37.616)" fill="#fff"/>
      </g>
    </g>
    <g id="Group_53" data-name="Group 53" transform="translate(-627.092)">
      <path id="Path_15" data-name="Path 15" d="M-608.81,36.562a18.3,18.3,0,0,1-18.281-18.281A18.3,18.3,0,0,1-608.81,0,18.3,18.3,0,0,1-590.53,18.281,18.3,18.3,0,0,1-608.81,36.562Zm0-35.419a17.158,17.158,0,0,0-17.139,17.138A17.158,17.158,0,0,0-608.81,35.419a17.157,17.157,0,0,0,17.138-17.138A17.157,17.157,0,0,0-608.81,1.143Z" transform="translate(627.092)" fill="#fff"/>
    </g>
  </g>
</svg>
